<?xml version="1.0" standalone="no"?>
<!DOCTYPE svg PUBLIC "-//W3C//DTD SVG 20010904//EN"
 "http://www.w3.org/TR/2001/REC-SVG-20010904/DTD/svg10.dtd">
<svg version="1.0" xmlns="http://www.w3.org/2000/svg"
 width="500.000000pt" height="500.000000pt" viewBox="0 0 500.000000 500.000000"
 preserveAspectRatio="xMidYMid meet">

<g transform="translate(0.000000,500.000000) scale(0.100000,-0.100000)"
fill="#000000" stroke="none">
<path d="M730 3540 l0 -260 260 0 260 0 0 260 0 260 -260 0 -260 0 0 -260z
m140 151 c0 -15 -16 -22 -34 -15 -25 9 -19 24 9 24 14 0 25 -4 25 -9z m255 -1
c4 -7 -32 -10 -109 -10 -64 0 -116 4 -116 9 0 13 217 14 225 1z m-230 -75 c0
-5 -17 -11 -37 -13 -30 -3 -38 0 -38 13 0 13 8 16 38 13 20 -2 37 -7 37 -13z
m208 -2 c-35 -2 -91 -2 -125 0 -35 2 -7 3 62 3 69 0 97 -1 63 -3z m-253 -73
c0 -5 -18 -10 -40 -10 -22 0 -40 5 -40 10 0 6 18 10 40 10 22 0 40 -4 40 -10z
m350 0 c0 -6 -60 -10 -160 -10 -100 0 -160 4 -160 10 0 6 60 10 160 10 100 0
160 -4 160 -10z m-330 -65 c0 -9 -9 -15 -25 -15 -16 0 -25 6 -25 15 0 9 9 15
25 15 16 0 25 -6 25 -15z m208 -2 c-32 -2 -86 -2 -120 0 -35 2 -9 3 57 3 66 0
94 -1 63 -3z m-178 -73 c0 -5 -18 -10 -40 -10 -22 0 -40 5 -40 10 0 6 18 10
40 10 22 0 40 -4 40 -10z m40 0 c0 -5 -4 -10 -10 -10 -5 0 -10 5 -10 10 0 6 5
10 10 10 6 0 10 -4 10 -10z m210 0 c0 -6 -40 -10 -100 -10 -60 0 -100 4 -100
10 0 6 40 10 100 10 60 0 100 -4 100 -10z"/>
<path d="M1620 3370 l0 -30 -145 0 -145 0 0 -45 c0 -35 -6 -52 -25 -70 -22
-23 -31 -25 -125 -25 l-100 0 0 -80 0 -80 95 0 c89 0 96 -2 125 -27 l29 -28 2
-283 c3 -356 11 -336 -145 -340 l-106 -3 0 -324 0 -325 68 -1 c37 -1 78 -2 92
-3 24 -1 25 1 30 77 3 42 2 78 -3 80 -4 1 -4 65 0 142 6 138 7 140 36 168 l29
27 373 0 373 0 27 -32 28 -33 -4 -212 -4 -213 625 -5 625 -4 6 -213 c4 -117 8
-278 9 -358 2 -80 5 -151 8 -158 2 -7 17 -19 33 -27 23 -12 88 -15 359 -15
l332 0 29 29 c16 16 29 39 29 50 0 21 -2 21 -372 22 -205 0 -366 3 -358 6 26
11 37 27 32 47 -4 15 -1 18 12 13 10 -4 19 -1 22 8 4 8 10 15 16 15 5 0 33 11
61 24 29 13 75 27 102 30 28 4 70 13 95 21 25 7 69 16 98 20 30 3 61 10 70 14
10 5 29 14 45 22 29 13 66 67 60 86 -3 8 -12 7 -31 -3 -21 -11 -77 -14 -245
-14 -238 0 -268 6 -287 56 -6 14 -10 117 -10 230 0 226 8 266 55 284 15 6 126
10 251 10 l225 0 24 -25 c24 -23 25 -29 27 -187 1 -90 1 -173 0 -185 0 -13 5
-23 13 -23 12 0 35 76 35 118 0 10 4 22 9 28 6 5 11 20 13 34 2 14 10 36 18
50 12 20 15 73 14 278 -2 315 6 300 -148 304 l-101 3 -3 296 -2 295 -194 0
c-192 -1 -195 -1 -220 23 l-26 24 0 203 0 202 -79 7 c-44 4 -89 4 -101 0 l-22
-7 6 -212 c3 -116 6 -322 7 -458 0 -269 -2 -282 -57 -307 -35 -15 -1628 -5
-1661 11 -36 18 -43 60 -42 257 1 264 12 444 27 449 7 2 12 12 12 22 0 10 8
20 18 23 18 4 19 -6 25 -152 4 -86 7 -240 7 -344 l0 -187 784 0 784 0 4 448
c2 246 2 462 0 480 l-4 32 -784 0 -784 0 0 -30z m330 -110 c0 -6 -33 -10 -80
-10 -47 0 -80 4 -80 10 0 6 33 10 80 10 47 0 80 -4 80 -10z m390 0 c0 -6 -63
-10 -170 -10 -107 0 -170 4 -170 10 0 6 63 10 170 10 107 0 170 -4 170 -10z
m-733 -102 c-3 -8 -6 -5 -6 6 -1 11 2 17 5 13 3 -3 4 -12 1 -19z m413 12 c0
-6 -35 -10 -85 -10 -50 0 -85 4 -85 10 0 6 35 10 85 10 50 0 85 -4 85 -10z
m1005 0 c4 -7 -155 -10 -469 -10 -311 0 -476 3 -476 10 0 7 163 10 469 10 303
0 472 -4 476 -10z m-1468 -62 c-3 -8 -6 -5 -6 6 -1 11 2 17 5 13 3 -3 4 -12 1
-19z m463 -23 c0 -12 -15 -15 -79 -15 -74 0 -100 7 -84 24 3 3 42 6 85 6 63 0
78 -3 78 -15z m778 -2 c-130 -2 -346 -2 -480 0 -134 1 -27 2 237 2 264 0 373
-1 243 -2z m-778 -78 c0 -12 -15 -15 -79 -15 -74 0 -100 7 -84 24 3 3 42 6 85
6 63 0 78 -3 78 -15z m723 -2 c-123 -2 -323 -2 -445 0 -123 1 -23 2 222 2 245
0 345 -1 223 -2z m270 0 c-7 -2 -21 -2 -30 0 -10 3 -4 5 12 5 17 0 24 -2 18
-5z m-993 -83 c0 -6 -35 -10 -85 -10 -50 0 -85 4 -85 10 0 6 35 10 85 10 50 0
85 -4 85 -10z m1000 0 c0 -6 -188 -9 -470 -10 -317 0 -470 3 -470 10 0 7 153
10 470 10 282 -1 470 -4 470 -10z m412 -77 c8 3 15 0 15 -7 0 -8 -9 -11 -24
-8 -13 2 -23 11 -23 21 0 13 2 13 9 2 5 -8 15 -11 23 -8z m-1482 -13 c0 -6
-33 -10 -80 -10 -47 0 -80 4 -80 10 0 6 33 10 80 10 47 0 80 -4 80 -10z m390
0 c0 -6 -63 -10 -170 -10 -107 0 -170 4 -170 10 0 6 63 10 170 10 107 0 170
-4 170 -10z m1109 -16 c17 -4 28 -10 25 -15 -2 -5 8 -11 23 -15 52 -11 48 -12
-29 -13 -62 -1 -78 -4 -78 -16 0 -13 25 -15 161 -15 l161 0 -6 23 c-5 21 -2
22 49 22 l55 0 0 -242 0 -243 -189 0 -189 0 -26 -31 c-26 -31 -26 -31 -26
-221 l0 -191 -377 6 c-207 4 -449 8 -537 8 -89 1 -148 4 -131 6 16 3 33 9 36
14 3 6 21 18 40 27 20 10 36 27 39 42 5 20 14 26 45 31 22 3 32 7 23 8 -10 0
-18 5 -18 9 0 4 29 6 65 4 36 -2 85 -1 110 2 l45 7 0 78 0 79 31 6 c62 12 61
14 57 -79 l-3 -85 103 0 102 0 2 90 c0 50 1 96 2 103 1 16 30 25 86 26 59 1
111 16 136 39 10 10 27 21 36 25 11 4 15 12 12 21 -3 9 3 28 13 43 15 22 19
41 16 91 -3 40 0 62 7 62 6 0 10 6 9 13 -5 39 2 107 11 102 6 -4 10 17 10 54
0 42 4 61 13 62 10 0 10 2 0 6 -18 7 -16 23 4 45 17 19 33 22 82 12z m-761
-72 c3 -9 -74 -12 -307 -12 -197 0 -311 4 -311 10 0 6 107 11 288 12 345 4
325 4 330 -10z m350 0 c3 -9 -37 -12 -152 -12 -90 0 -156 4 -156 9 0 13 41 16
184 15 83 0 121 -4 124 -12z m-1048 -82 c0 -5 -5 -10 -11 -10 -5 0 -7 5 -4 10
3 6 8 10 11 10 2 0 4 -4 4 -10z m30 0 c0 -5 -4 -10 -10 -10 -5 0 -10 5 -10 10
0 6 5 10 10 10 6 0 10 -4 10 -10z m670 0 c0 -6 -110 -10 -310 -10 -200 0 -310
4 -310 10 0 6 110 10 310 10 200 0 310 -4 310 -10z m350 0 c0 -6 -58 -10 -155
-10 -97 0 -155 4 -155 10 0 6 58 10 155 10 97 0 155 -4 155 -10z m-350 -85 c0
-13 -41 -15 -310 -15 -269 0 -310 2 -310 15 0 13 41 15 310 15 269 0 310 -2
310 -15z m350 0 c0 -13 -24 -15 -155 -15 -131 0 -155 2 -155 15 0 13 24 15
155 15 131 0 155 -2 155 -15z m-1073 -2 c-20 -2 -52 -2 -70 0 -17 2 0 4 38 4
39 0 53 -2 32 -4z m1016 -350 c-7 -2 -19 -2 -25 0 -7 3 -2 5 12 5 14 0 19 -2
13 -5z"/>
<path d="M3396 2671 c-4 -5 -2 -11 4 -13 23 -7 300 4 300 13 0 12 -297 12
-304 0z"/>
<path d="M3400 2584 c0 -14 17 -16 147 -12 105 2 148 7 151 16 3 9 -31 12
-147 12 -132 0 -151 -2 -151 -16z"/>
<path d="M3099 2226 c-2 -2 -3 -50 -1 -105 l3 -101 100 0 99 0 0 100 0 100
-84 0 c-46 0 -91 2 -98 5 -8 3 -16 4 -19 1z"/>
<path d="M2505 1970 c3 -5 8 -10 11 -10 2 0 4 5 4 10 0 6 -5 10 -11 10 -5 0
-7 -4 -4 -10z"/>
<path d="M1436 1835 c15 -23 43 -45 58 -45 17 0 2 31 -23 49 -40 29 -55 27
-35 -4z"/>
<path d="M4080 1453 c0 -4 5 -15 10 -23 8 -13 10 -13 10 2 0 9 -4 20 -10 23
-5 3 -10 3 -10 -2z"/>
</g>
</svg>
